<svg width="16" height="16" viewBox="0 0 16 16" fill="none" xmlns="http://www.w3.org/2000/svg">
<path fill-rule="evenodd" clip-rule="evenodd" d="M5.32316 1.38454C5.59729 1.1104 5.98378 1 6.42455 1H9.57545C10.0162 1 10.4027 1.1104 10.6768 1.38454C10.951 1.65868 11.0614 2.04516 11.0614 2.48593V8.48338H13.5141C13.9548 8.48338 14.3413 8.59378 14.6155 8.86792C14.8896 9.14205 15 9.52854 15 9.96931V13.5141C15 13.9548 14.8896 14.3413 14.6155 14.6155C14.3413 14.8896 13.9548 15 13.5141 15H2.48593C2.04516 15 1.65868 14.8896 1.38454 14.6155C1.1104 14.3413 1 13.9548 1 13.5141V7.69566C0.999997 7.24816 1.12282 6.85597 1.40244 6.57635C1.68205 6.29674 2.07424 6.17391 2.52174 6.17391H4.93862V2.48593C4.93862 2.04516 5.04902 1.65868 5.32316 1.38454ZM4.93862 6.78261H2.52174C2.18151 6.78261 1.965 6.87462 1.83285 7.00677C1.7007 7.13892 1.60869 7.35543 1.6087 7.69565V13.5141C1.6087 13.861 1.69523 14.0653 1.81495 14.1851C1.93467 14.3048 2.13899 14.3913 2.48593 14.3913H4.93862V6.78261ZM11.0614 14.3913H13.5141C13.861 14.3913 14.0653 14.3048 14.185 14.1851C14.3048 14.0653 14.3913 13.861 14.3913 13.5141V9.96931C14.3913 9.62236 14.3048 9.41805 14.185 9.29833C14.0653 9.1786 13.861 9.09207 13.5141 9.09207H11.0614V14.3913ZM5.75357 1.81495C5.63384 1.93468 5.54731 2.13899 5.54731 2.48593V14.3913H10.4527V2.48593C10.4527 2.13899 10.3662 1.93468 10.2464 1.81495C10.1267 1.69523 9.92239 1.6087 9.57545 1.6087H6.42455C6.0776 1.6087 5.87329 1.69523 5.75357 1.81495Z" fill="white"/>
<path d="M8.30435 4.45524C8.30435 4.23671 8.25315 3.97077 8.01303 3.85071C7.8258 3.77023 7.70028 3.76836 7.47003 3.88763C7.34436 3.95047 7.0928 4.16022 7.00451 4.23383L6.99707 4.24004C6.87821 4.35889 6.87821 4.5516 6.99707 4.67045C7.19869 4.84074 7.34499 4.81786 7.69565 4.45789V6.90793H6.81841C6.65033 6.90793 6.51407 7.04419 6.51407 7.21228C6.51407 7.38036 6.65033 7.51663 6.81841 7.51663H9.18159C9.34967 7.51663 9.48593 7.38036 9.48593 7.21228C9.48593 7.04419 9.34967 6.90793 9.18159 6.90793H8.30435V4.45524Z" fill="white"/>
</svg>
