<svg width="16" height="16" viewBox="0 0 16 16" fill="none" xmlns="http://www.w3.org/2000/svg">
<path d="M8 3.92928C8.16809 3.92928 8.30435 4.06554 8.30435 4.23363V11.7664C8.30435 11.9345 8.16809 12.0707 8 12.0707C7.83191 12.0707 7.69565 11.9345 7.69565 11.7664V4.23363C7.69565 4.06554 7.83191 3.92928 8 3.92928Z" fill="white"/>
<path d="M6.05923 4.30592C6.22732 4.30592 6.36358 4.44218 6.36358 4.61026C6.36358 5.84198 5.51039 7.17444 4.11846 7.17444C3.95038 7.17444 3.81412 7.03817 3.81412 6.87009C3.81412 6.702 3.95038 6.56574 4.11846 6.56574C5.05546 6.56574 5.75488 5.63837 5.75488 4.61026C5.75488 4.44218 5.89115 4.30592 6.05923 4.30592Z" fill="white"/>
<path d="M9.94077 4.30592C10.1089 4.30592 10.2451 4.44218 10.2451 4.61026C10.2451 5.63837 10.9445 6.56574 11.8815 6.56574C12.0496 6.56574 12.1859 6.702 12.1859 6.87009C12.1859 7.03817 12.0496 7.17444 11.8815 7.17444C10.4896 7.17444 9.63642 5.84198 9.63642 4.61026C9.63642 4.44218 9.77268 4.30592 9.94077 4.30592Z" fill="white"/>
<path d="M3.81412 9.12991C3.81412 8.96182 3.95038 8.82556 4.11846 8.82556C4.76848 8.82556 5.34293 9.03792 5.75154 9.49105C6.15654 9.94017 6.36358 10.5869 6.36358 11.3897C6.36358 11.5578 6.22732 11.6941 6.05923 11.6941C5.89115 11.6941 5.75488 11.5578 5.75488 11.3897C5.75488 10.686 5.57377 10.2028 5.2995 9.89868C5.02884 9.59854 4.63291 9.43426 4.11846 9.43426C3.95038 9.43426 3.81412 9.298 3.81412 9.12991Z" fill="white"/>
<path d="M10.7005 9.89868C10.4262 10.2028 10.2451 10.686 10.2451 11.3897C10.2451 11.5578 10.1089 11.6941 9.94077 11.6941C9.77268 11.6941 9.63642 11.5578 9.63642 11.3897C9.63642 10.5869 9.84346 9.94017 10.2485 9.49105C10.6571 9.03792 11.2315 8.82556 11.8815 8.82556C12.0496 8.82556 12.1859 8.96182 12.1859 9.12991C12.1859 9.298 12.0496 9.43426 11.8815 9.43426C11.3671 9.43426 10.9712 9.59854 10.7005 9.89868Z" fill="white"/>
<path fill-rule="evenodd" clip-rule="evenodd" d="M12.9564 3.64157C13.4809 3.85344 13.7955 4.1673 13.9606 4.59471C14.118 5.00178 14.1263 5.4894 14.1267 5.99112C14.6985 6.5848 15 7.28377 15 8C15 8.71623 14.6985 9.41521 14.1267 10.0089C14.1263 10.5106 14.118 10.9982 13.9606 11.4053C13.7955 11.8327 13.4809 12.1466 12.9564 12.3584C12.8858 13.6688 12.1726 14.562 11.3063 14.8772C10.8533 15.042 10.3611 15.0455 9.91984 14.8599C9.58393 14.7187 9.29018 14.4732 9.07092 14.1291C8.73488 14.3782 8.37734 14.5189 8 14.5189C7.62266 14.5189 7.26512 14.3782 6.92908 14.1291C6.70982 14.4732 6.41607 14.7187 6.08016 14.8599C5.63888 15.0455 5.14673 15.042 4.69366 14.8772C3.82742 14.562 3.11422 13.6688 3.04356 12.3584C2.51913 12.1466 2.20455 11.8327 2.03937 11.4053C1.88205 10.9982 1.8737 10.5106 1.87335 10.0089C1.30151 9.41521 1 8.71623 1 8C1 7.28377 1.30151 6.5848 1.87335 5.99112C1.8737 5.4894 1.88205 5.00178 2.03937 4.59471C2.20455 4.1673 2.51913 3.85344 3.04356 3.64157C3.11422 2.33121 3.82742 1.43805 4.69366 1.12285C5.14673 0.957986 5.63888 0.954514 6.08016 1.14006C6.41607 1.2813 6.70982 1.52677 6.92908 1.87086C7.26512 1.6218 7.62266 1.48114 8 1.48114C8.37734 1.48114 8.73488 1.6218 9.07092 1.87086C9.29018 1.52677 9.58393 1.2813 9.91984 1.14006C10.3611 0.954513 10.8533 0.957986 11.3063 1.12285C12.1726 1.43805 12.8858 2.33121 12.9564 3.64157ZM10.1558 1.70117C9.87225 1.82039 9.61201 2.06332 9.44584 2.46643L9.27473 2.88151L8.95252 2.56886C8.59855 2.22539 8.2823 2.08983 8 2.08983C7.7177 2.08984 7.40145 2.22539 7.04748 2.56886L6.72527 2.88151L6.55416 2.46643C6.38799 2.06332 6.12775 1.82039 5.84423 1.70117C5.55772 1.5807 5.22504 1.57723 4.9018 1.69485C4.2621 1.92762 3.6465 2.64838 3.6465 3.85699L3.6465 4.07842L3.43582 4.14657C2.92038 4.31328 2.71258 4.54129 2.60714 4.81414C2.48645 5.12642 2.48204 5.53247 2.48204 6.11681V6.24557L2.38964 6.33524C1.85689 6.85217 1.6087 7.43565 1.6087 8C1.6087 8.56435 1.85689 9.14783 2.38964 9.66476L2.48204 9.75443L2.48204 9.88319C2.48204 10.4675 2.48645 10.8736 2.60714 11.1859C2.71258 11.4587 2.92038 11.6867 3.43582 11.8534L3.6465 11.9216V12.143C3.6465 13.3516 4.2621 14.0724 4.9018 14.3052C5.22504 14.4228 5.55772 14.4193 5.84423 14.2988C6.12775 14.1796 6.38799 13.9367 6.55416 13.5336L6.72527 13.1185L7.04748 13.4311C7.40145 13.7746 7.7177 13.9102 8 13.9102C8.2823 13.9102 8.59855 13.7746 8.95252 13.4311L9.27473 13.1185L9.44584 13.5336C9.61201 13.9367 9.87225 14.1796 10.1558 14.2988C10.4423 14.4193 10.775 14.4228 11.0982 14.3052C11.7379 14.0724 12.3535 13.3516 12.3535 12.143V11.9216L12.5642 11.8534C13.0796 11.6867 13.2874 11.4587 13.3929 11.1859C13.5136 10.8736 13.518 10.4675 13.518 9.88319V9.75443L13.6104 9.66476C14.1431 9.14783 14.3913 8.56435 14.3913 8C14.3913 7.43565 14.1431 6.85217 13.6104 6.33524L13.518 6.24557V6.11681C13.518 5.53247 13.5136 5.12642 13.3929 4.81414C13.2874 4.54129 13.0796 4.31328 12.5642 4.14657L12.3535 4.07842V3.85699C12.3535 2.64838 11.7379 1.92762 11.0982 1.69485C10.775 1.57723 10.4423 1.5807 10.1558 1.70117Z" fill="white"/>
</svg>
