<svg width="16" height="16" viewBox="0 0 16 16" fill="none" xmlns="http://www.w3.org/2000/svg">
<path fill-rule="evenodd" clip-rule="evenodd" d="M3.88672 2.59597C4.05491 2.42776 4.283 2.33327 4.5208 2.33327H12.2968V8.23424C12.2968 8.60243 12.5953 8.9009 12.9635 8.9009C13.3317 8.9009 13.6301 8.60243 13.6301 8.23424V2.29209C13.6301 1.94943 13.494 1.62078 13.2517 1.37844C13.0094 1.1361 12.6808 0.999939 12.3381 0.999939H4.5208C3.9293 0.999939 3.36205 1.23495 2.94383 1.65324C2.52561 2.07153 2.29068 2.63883 2.29068 3.23033V12.6127C2.29068 13.2042 2.52561 13.7715 2.94383 14.1897C3.36205 14.608 3.9293 14.843 4.5208 14.843H6.70964C7.07783 14.843 7.37631 14.5446 7.37631 14.1764C7.37631 13.8082 7.07783 13.5097 6.70964 13.5097H4.5208C4.283 13.5097 4.05491 13.4152 3.88672 13.247C3.71852 13.0788 3.62401 12.8506 3.62401 12.6127C3.62401 12.3747 3.71852 12.1465 3.88672 11.9783C4.05491 11.8101 4.283 11.7156 4.5208 11.7156H5.77157C6.13976 11.7156 6.43823 11.4171 6.43823 11.0489C6.43823 10.6807 6.13976 10.3823 5.77157 10.3823H4.5208C4.20905 10.3823 3.90403 10.4476 3.62401 10.5705V3.23033C3.62401 2.99238 3.71852 2.7642 3.88672 2.59597ZM9.91502 9.36989C8.90152 9.36989 8.07978 10.1916 8.07978 11.2054C8.07978 12.2192 8.90152 13.041 9.91502 13.041C10.9285 13.041 11.7503 12.2192 11.7503 11.2054C11.7503 10.1916 10.9285 9.36989 9.91502 9.36989ZM6.74645 11.2054C6.74645 9.45538 8.16499 8.03656 9.91502 8.03656C11.665 8.03656 13.0836 9.45538 13.0836 11.2054C13.0836 11.8393 12.8975 12.4297 12.577 12.9249L13.5141 13.862C13.7744 14.1224 13.7744 14.5445 13.5141 14.8048C13.2537 15.0652 12.8316 15.0652 12.5712 14.8048L11.6342 13.8678C11.139 14.1882 10.5487 14.3743 9.91502 14.3743C8.16499 14.3743 6.74645 12.9555 6.74645 11.2054Z" fill="white"/>
</svg>
