<svg width="16" height="16" viewBox="0 0 16 16" fill="none" xmlns="http://www.w3.org/2000/svg">
<path d="M3.89393 8.18927C3.85109 8.21463 3.09877 7.85299 2.98125 7.79896C2.00158 7.34471 1.04278 6.84526 0.0708002 6.37557C0.0016083 6.29949 -0.0280454 6.20578 0.0334585 6.11537C2.2454 5.01943 4.45844 3.90475 6.70333 2.87055C7.52046 2.49458 7.80052 2.20461 8.711 2.60043C10.7406 3.48247 12.8581 4.54974 14.8504 5.53432C15.0448 5.63024 15.8608 6.00401 15.9531 6.11647C16.0278 6.20688 16.0113 6.3017 15.9179 6.37006C13.7763 7.41638 11.6423 8.49137 9.4776 9.48918C8.7736 9.81443 8.24752 10.229 7.46005 9.9313C6.65281 9.627 5.5084 9.05146 4.7396 8.6336C4.63856 8.57847 4.4848 8.52224 4.45185 8.40868C4.46503 8.32929 5.67205 7.71407 5.84118 7.62476C6.22668 7.41969 7.16022 6.86951 7.52375 6.78021C7.74341 6.72618 8.02457 6.81218 8.28267 6.76257C8.65279 6.692 9.10638 6.3028 8.75493 5.93675C8.40348 5.57071 7.41832 5.57953 7.15583 6.05252C7.08993 6.17049 7.13057 6.32044 7.07236 6.391C7.05259 6.41416 6.88016 6.5167 6.83513 6.54316C5.97737 7.05143 4.98232 7.43733 4.13774 7.96214C4.04219 8.02168 3.93127 8.0746 3.89502 8.19037L3.89393 8.18927Z" fill="white"/>
<path d="M12.9603 10.4848C12.9449 10.5587 12.6681 10.9886 12.6033 11.0691C11.941 11.8949 10.6407 12.5388 9.62697 12.7924C8.05862 13.1838 6.50235 12.9986 5.03504 12.3492L4.67371 9.28521L4.69128 9.10549L7.71046 10.5256C7.95098 10.5884 8.08388 10.5763 8.31671 10.5035L12.9592 8.29291V10.4859L12.9603 10.4848Z" fill="white"/>
<path d="M4.09271 8.97424C4.13664 8.99299 4.14653 9.14073 4.15312 9.18924C4.31566 10.4164 4.56717 11.8023 4.64185 13.0195C4.64844 13.1187 4.66382 13.3756 4.61 13.4407C4.43867 13.6491 3.61496 13.6645 3.51282 13.3139L4.09271 8.97424Z" fill="white"/>
<path d="M2.96039 8.25873L3.58751 8.5476L3.61057 8.59942L3.31623 11.0206C3.22947 10.9964 2.96039 10.5168 2.96039 10.4848V8.25873Z" fill="white"/>
</svg>
