<svg width="16" height="16" viewBox="0 0 16 16" fill="none" xmlns="http://www.w3.org/2000/svg">
<path fill-rule="evenodd" clip-rule="evenodd" d="M8.8617 14.64C8.46251 14.4 8.06337 14.88 8.46253 15.28C9.03586 15.8545 9.66004 15.92 10.1391 15.92H11.8156C11.8156 15.92 12.1349 15.92 12.1349 15.6C12.1349 15.28 11.7358 15.2 11.7358 15.2C11.2567 15.04 10.4584 14.24 10.2987 13.12V9.51999H12.5341C13.0131 9.51999 13.5172 9.26136 13.8115 8.87999C14.3432 9.39225 14.7187 9.51291 15.488 9.51999C16.1267 9.51999 16.0865 8.99632 15.8073 8.71999C15.3602 8.27738 15.1883 7.9154 15.0888 6.95999V1.28C15.0888 0.48 14.53 0 13.8115 0H6.94564C6.06746 0 5.66828 0.479999 5.66828 1.28V5.59999L5.74812 5.67999H1.8362C0.79835 5.67999 0 6.47999 0 7.51999V14.32C0 15.2 0.79835 16 1.67653 16H7.10531C7.32577 16 7.50449 15.8209 7.50449 15.6C7.50449 15.3791 7.32577 15.2 7.10531 15.2H1.67653C1.19752 15.2 0.79835 14.8 0.79835 14.32V7.51999C0.79835 6.79999 1.19752 6.47999 1.8362 6.47999H8.62218C9.26086 6.47999 9.5802 6.79999 9.58021 7.44001V13.12C9.58021 13.92 9.8197 14.4 10.4584 15.2C9.73987 15.28 9.42053 15.04 8.8617 14.64ZM10.0592 1.44L8.38267 5.67999H11.5761L11.9752 6.79999C12.1349 7.19999 12.8534 6.87999 12.6938 6.47999L10.7777 1.44C10.6181 1.04 10.2189 1.04 10.0592 1.44Z" fill="white"/>
<path d="M13.4123 15.2C13.1918 15.2 13.0131 15.3791 13.0131 15.6C13.0131 15.8209 13.1918 16 13.4123 16C13.6327 16 13.8115 15.8209 13.8115 15.6C13.8115 15.3791 13.6327 15.2 13.4123 15.2Z" fill="white"/>
<path fill-rule="evenodd" clip-rule="evenodd" d="M4.23125 8.63999H3.11356C2.55472 8.63999 2.55472 9.35999 3.11356 9.35999H4.15142V10.4C2.94519 10.9629 2.42714 11.3546 2.39505 12.56C2.39505 13.36 3.1934 14.16 4.07158 14.16C4.7901 14.16 5.33557 13.7733 5.90779 12.96L6.70614 11.28C7.10531 11.36 7.18515 12.08 7.02548 12.4C6.73724 12.9271 6.54275 13.1693 6.14729 13.52C5.90779 13.84 6.30696 14.4 6.70614 14.08C7.34482 13.44 7.74399 12.96 7.82383 12.24C7.90366 11.44 7.61503 10.9529 7.02548 10.48C7.10531 9.99999 6.54647 9.75999 6.30696 10.16C5.73995 10.0301 5.42427 10.0232 4.86993 10.16V9.35999H7.50449C8.06333 9.35999 8.06333 8.63999 7.50449 8.63999H4.94977L5.0296 7.99999C5.10944 7.51999 4.39092 7.35999 4.31109 7.83999L4.23125 8.63999ZM3.11356 12.64C3.03373 12 3.51274 11.44 4.15142 11.2C4.21447 12.0069 4.29431 12.423 4.55059 13.2C3.8544 13.4814 3.1934 13.28 3.11356 12.64ZM5.98762 10.88C5.54144 10.8462 5.29591 10.8582 4.86993 10.96C4.89219 11.6383 4.97921 12.0022 5.18927 12.64C5.57322 11.9845 5.76266 11.6056 5.98762 10.88Z" fill="white"/>
<path d="M10.4584 2.64L9.5802 4.96H11.3366L10.4584 2.64Z" fill="white"/>
</svg>
