<svg width="16" height="16" viewBox="0 0 16 16" fill="none" xmlns="http://www.w3.org/2000/svg">
<g clip-path="url(#clip0_38_318)">
<path d="M6.55079 1.52018V3.07096C6.55079 3.21159 6.06794 3.21159 6.06794 3.07096V0.313881C6.06794 0.0184342 5.44307 -0.164769 5.27653 0.211959C5.09836 0.614489 5.38239 2.05689 5.20681 2.34718C5.13709 2.46458 4.92278 2.49942 4.80529 2.42072C4.458 2.18978 5.06221 0.414514 4.20495 0.650614C3.59816 0.818335 4.22045 2.36266 3.72727 2.45555C3.08432 2.57683 3.56847 1.37052 3.28056 1.03121C3.04688 0.755117 2.55112 0.947351 2.55112 1.20925V2.31234C2.55112 2.41427 2.22577 2.60134 2.10312 2.34589C1.92108 1.96916 2.35488 0.726733 1.30396 1.22087C1.27298 1.28279 1.25619 1.35117 1.24716 1.41955C1.1826 1.87627 1.17486 3.51477 1.24457 3.96117C1.28847 4.24243 1.60219 4.64496 1.70806 4.94556C2.06052 5.94931 1.7313 7.02918 1.79327 8.06518C2.54466 7.91681 3.66013 7.75941 4.33922 8.17355C4.65037 8.3632 5.05188 8.90249 5.37594 8.99925C5.65222 9.08053 5.98919 9.0057 6.2758 9.03022V5.27456C6.2758 4.92105 7.30735 4.18953 7.37965 3.55219C7.46357 2.81164 7.43775 1.70597 6.55209 1.51889L6.55079 1.52018ZM13.8607 0.210668H9.51634V1.65823H10.5853C10.7622 1.65823 11.6634 1.03766 11.8957 1.03766H13.8607V0.210668ZM13.6877 3.72507C13.9743 3.67862 14.4727 3.72507 14.7916 3.72507C14.953 3.72507 15.1402 3.40382 15.0911 3.2232C14.922 2.59876 13.5664 3.17933 13.5134 2.65295C13.4682 2.21042 14.3746 2.56263 14.7244 2.2788C14.9697 2.08011 14.9246 1.71629 14.6237 1.61824C14.3978 1.5447 12.3373 1.5447 12.0378 1.59243C11.7163 1.64275 10.912 2.20784 10.6538 2.20784H7.86121V3.96504C7.86121 4.22823 6.75736 5.22682 6.75736 5.4126V6.61891H10.4472C11.103 6.61891 11.7382 7.66394 12.2392 7.72328C12.9699 7.80972 14.2906 7.83424 14.4133 6.895H12.9312C12.7311 6.895 12.7311 6.41248 12.9312 6.41248H15.6204C15.9445 6.41248 16.1536 5.7403 15.6747 5.59968C15.3364 5.50033 13.6438 5.69773 13.5263 5.50807C13.4941 5.45647 13.5057 5.2823 13.5289 5.21908C13.6942 4.7701 15.2486 5.35584 15.3119 4.72237C15.3893 3.95988 14.035 4.4295 13.6542 4.24372C13.4682 4.15211 13.4231 3.77023 13.689 3.72636L13.6877 3.72507ZM0.689421 2.20913H0V6.55053H1.31042V5.34422C1.31042 5.22166 0.689421 4.30951 0.689421 4.10438V2.20913ZM13.8607 8.13614C13.3417 8.20967 12.5787 8.27805 12.0636 8.17484C11.4762 8.05615 10.8074 7.10272 10.4472 7.10272H9.44791V10.7203C9.44791 10.9861 8.66554 11.7125 8.50674 11.986C8.13879 12.622 8.23949 14.2786 9.17163 14.476V12.9949C9.17163 12.9601 9.34463 12.8156 9.41693 12.8194C9.50472 12.7833 9.7242 12.9446 9.7242 12.9949V15.7507C9.7242 15.9945 10.3232 16.1106 10.4485 15.8539C10.6344 15.4746 10.2367 13.6142 10.7338 13.52L11.0346 13.6825V15.0604C11.0346 15.1172 11.3561 15.3675 11.4723 15.3559C11.5614 15.3481 11.8622 15.1043 11.8622 15.0604V13.6825L12.163 13.52C12.7207 13.8296 12.1023 14.8979 12.6536 15.1017C13.5496 15.4333 12.8718 13.6245 13.4231 13.5213C13.8685 13.4387 13.689 14.2734 13.72 14.5121C13.7871 15.0243 14.4791 15.0708 14.5527 14.4412C14.616 13.9019 14.5979 12.4221 14.4469 11.9253C14.3526 11.6144 13.8607 10.8339 13.8607 10.581V8.13485V8.13614ZM8.96506 9.51403H5.41338C4.89696 9.51403 4.24627 8.48319 3.62011 8.41094C2.81966 8.31934 1.81264 8.33998 1.51699 9.23793H3.06883L3.21084 9.51919C3.16049 9.65337 3.05721 9.74239 2.91649 9.77335C2.28774 9.91527 0.670056 9.62111 0.20915 9.82367C-0.173001 9.99268 0.0710078 10.5462 0.241427 10.5462H2.30969C2.36004 10.5462 2.52142 10.7642 2.48527 10.8532C2.48915 10.9255 2.34326 11.0983 2.30969 11.0983H0.930848C0.648108 11.0983 0.575809 11.9253 0.999274 11.9253H2.37812C2.51884 11.9253 2.51884 12.4079 2.37812 12.4079H1.27427C1.19035 12.4079 0.906318 12.6672 0.893408 12.7898C0.877915 12.9472 1.06512 13.2349 1.20584 13.2349H2.30969C2.53562 13.2349 2.54337 13.5961 2.38586 13.7238C2.13282 13.9277 1.39175 13.5858 1.20713 13.9948C1.14258 14.138 1.16582 14.3702 1.27427 14.4773C1.40466 14.6063 2.88937 14.5392 3.20955 14.5418C3.39417 14.5431 3.55814 14.6269 3.75567 14.6166C4.17139 14.596 4.6594 14.1883 5.06479 14.058C5.98015 13.7651 6.97813 14.0954 7.92964 13.9922C7.85863 13.102 7.65206 12.1808 8.21754 11.4209C8.7146 10.7539 9.14452 10.5371 8.96377 9.51403H8.96506ZM15.9987 9.58241H14.4133V10.6507C14.4133 10.7474 15.0343 11.7705 15.0343 11.9602V13.9935C15.3403 13.9509 15.7612 14.1006 16 13.8903V9.5837L15.9987 9.58241ZM6.27451 14.4747C5.99693 14.4824 5.71936 14.4476 5.44307 14.5057C5.13322 14.5702 4.27209 15.0953 4.10296 15.0953H1.8617V15.9906H6.17123L6.27451 15.8874V14.4747Z" fill="white"/>
<path d="M13.6877 3.72507C13.4218 3.76894 13.467 4.15082 13.6529 4.24243C14.0324 4.4295 15.3867 3.95859 15.3106 4.72108C15.246 5.35584 13.6929 4.76881 13.5276 5.21779C13.5044 5.28101 13.4928 5.45518 13.5251 5.50678C13.6425 5.69644 15.3351 5.50033 15.6734 5.59839C16.1523 5.73901 15.9419 6.41119 15.6191 6.41119H12.9299C12.7298 6.41119 12.7298 6.89371 12.9299 6.89371H14.412C14.2894 7.83295 12.9686 7.80843 12.2379 7.72199C11.7369 7.66265 11.1018 6.61761 10.4459 6.61761H6.75607V5.41131C6.75607 5.22682 7.85992 4.22694 7.85992 3.96375V2.20655H10.6525C10.9107 2.20655 11.7137 1.64146 12.0365 1.59114C12.336 1.5447 14.3965 1.54341 14.6224 1.61695C14.9246 1.715 14.9684 2.07882 14.7232 2.27751C14.3733 2.56134 13.467 2.20784 13.5121 2.65166C13.5651 3.17804 14.922 2.59618 15.0898 3.22191C15.1389 3.40253 14.9517 3.72378 14.7903 3.72378C14.4714 3.72378 13.973 3.67733 13.6864 3.72378L13.6877 3.72507Z" fill="white"/>
<path d="M6.55079 1.52018C7.43646 1.70726 7.46228 2.81164 7.37836 3.55348C7.30606 4.19082 6.27451 4.92234 6.27451 5.27585V9.03151C5.9879 9.007 5.65093 9.08183 5.37465 9.00054C5.05059 8.90507 4.64908 8.36449 4.33793 8.17484C3.65884 7.7607 2.54208 7.9181 1.79198 8.06647C1.7313 7.03047 2.06052 5.9506 1.70677 4.94685C1.6009 4.64625 1.28847 4.24372 1.24328 3.96246C1.17357 3.51606 1.18131 1.87756 1.24586 1.42084C1.25619 1.35117 1.27169 1.28408 1.30267 1.22216C2.35359 0.728024 1.91979 1.97045 2.10183 2.34718C2.22448 2.60263 2.54983 2.41556 2.54983 2.31363V1.21054C2.54983 0.948641 3.04559 0.755117 3.27927 1.0325C3.56588 1.37181 3.08303 2.57812 3.72597 2.45684C4.21916 2.36395 3.59687 0.819625 4.20366 0.651904C5.06092 0.414514 4.45671 2.19107 4.804 2.42201C4.92149 2.50071 5.13451 2.46458 5.20552 2.34847C5.3811 2.05818 5.09707 0.615779 5.27524 0.213249C5.44178 -0.163479 6.06665 0.0184342 6.06665 0.315172V3.07096C6.06665 3.21159 6.5495 3.21159 6.5495 3.07096V1.52018H6.55079Z" fill="white"/>
<path d="M8.96506 9.51403C9.14581 10.5371 8.71589 10.7539 8.21883 11.4209C7.65206 12.1808 7.85992 13.102 7.93093 13.9922C6.97942 14.0954 5.98144 13.7651 5.06609 14.058C4.6607 14.1883 4.17268 14.596 3.75696 14.6166C3.55943 14.6269 3.39547 14.5431 3.21084 14.5418C2.89066 14.5392 1.40595 14.6063 1.27556 14.4773C1.16711 14.3702 1.14387 14.1393 1.20842 13.9948C1.39175 13.5858 2.13411 13.9277 2.38715 13.7238C2.54595 13.5961 2.53692 13.2349 2.31098 13.2349H1.20713C1.0677 13.2349 0.879206 12.9472 0.894699 12.7898C0.907609 12.6685 1.19164 12.4079 1.27556 12.4079H2.37941C2.52013 12.4079 2.52013 11.9253 2.37941 11.9253H0.999274C0.575809 11.9253 0.646817 11.0983 0.930848 11.0983H2.30969C2.34455 11.0983 2.48915 10.9255 2.48527 10.8532C2.52142 10.7655 2.36004 10.5462 2.30969 10.5462H0.241427C0.0710078 10.5462 -0.174292 9.99268 0.20915 9.82367C0.670056 9.61982 2.28903 9.91527 2.91649 9.77335C3.05721 9.7411 3.16049 9.65337 3.21084 9.51919L3.06883 9.23793H1.51699C1.81264 8.33998 2.81966 8.31934 3.62011 8.41094C4.24627 8.48319 4.89567 9.51403 5.41338 9.51403H8.96506Z" fill="white"/>
<path d="M13.8607 8.13614V10.5823C13.8607 10.8352 14.3513 11.6157 14.4469 11.9266C14.5979 12.4246 14.6147 13.9032 14.5527 14.4424C14.4791 15.072 13.7871 15.0256 13.72 14.5134C13.689 14.2747 13.8685 13.44 13.4231 13.5226C12.8705 13.6245 13.5496 15.4346 12.6536 15.103C12.101 14.8992 12.7194 13.8296 12.163 13.5213L11.8622 13.6838V15.0617C11.8622 15.1056 11.5614 15.3494 11.4723 15.3572C11.3561 15.3688 11.0346 15.1185 11.0346 15.0617V13.6838L10.7338 13.5213C10.2367 13.6155 10.6344 15.4746 10.4485 15.8552C10.3232 16.1119 9.7242 15.9958 9.7242 15.752V12.9962C9.7242 12.9459 9.50601 12.7846 9.41693 12.8207C9.34463 12.8168 9.17163 12.9626 9.17163 12.9962V14.4773C8.23949 14.2786 8.13879 12.6233 8.50674 11.9873C8.66425 11.7138 9.44791 10.9874 9.44791 10.7216V7.10401H10.4472C10.8074 7.10401 11.4762 8.05744 12.0636 8.17613C12.5787 8.28063 13.3417 8.21097 13.8607 8.13743V8.13614Z" fill="white"/>
<path d="M15.9987 9.58241V13.889C15.7599 14.1006 15.339 13.9496 15.033 13.9922V11.9589C15.033 11.7692 14.412 10.7461 14.412 10.6494V9.58112H15.9974L15.9987 9.58241Z" fill="white"/>
<path d="M6.27451 14.4747V15.8874L6.17123 15.9906H1.8617V15.0953H4.10296C4.27338 15.0953 5.13451 14.5702 5.44307 14.5057C5.71936 14.4476 5.99693 14.4824 6.27451 14.4747Z" fill="white"/>
<path d="M13.8607 0.210668V1.03766H11.8957C11.6634 1.03766 10.7622 1.65823 10.5853 1.65823H9.51634V0.210668H13.8607Z" fill="white"/>
<path d="M0.689421 2.20913V4.10438C0.689421 4.30951 1.31042 5.22166 1.31042 5.34422V6.55053H0V2.20913H0.689421Z" fill="white"/>
</g>
<defs>
<clipPath id="clip0_38_318">
<rect width="16" height="16" fill="white"/>
</clipPath>
</defs>
</svg>
