<svg width="16" height="16" viewBox="0 0 16 16" fill="none" xmlns="http://www.w3.org/2000/svg">
<path d="M2.10664 5.77231L1.49812 6.86527C1.41103 7.15186 1.74087 7.25211 1.88892 7.02L2.96554 5.16535C3.42492 4.79703 4.02365 5.16644 3.82662 5.75378C3.7711 5.91941 3.28559 6.45227 3.74279 6.49586C3.9812 6.51874 4.10312 5.92159 4.37635 5.79519C4.87384 5.56417 5.26247 6.04473 5.07196 6.52964C4.98705 6.74431 4.63108 7.01564 4.94678 7.21179C5.22219 7.2957 5.33649 6.79335 5.48998 6.63534C5.81656 6.29754 6.42182 6.52964 6.40549 7.00148C6.39678 7.2739 5.87099 7.79369 6.16926 7.94188C6.36739 8.03996 6.4621 7.83509 6.55245 7.69888C7.23717 6.66803 7.76514 5.44104 8.45422 4.40147C8.83196 3.93944 9.51995 4.29795 9.36428 4.88203C8.44769 6.45445 7.59097 8.07265 6.64498 9.62982C6.04081 10.6236 5.56401 11.3613 4.36329 11.6861C2.07616 12.3061 -0.343779 10.2869 0.0404934 7.9081C0.186365 7.00257 0.890684 5.14464 2.10664 5.77231Z" fill="white"/>
<path d="M8.82761 6.63316L10.2558 9.05446C10.7969 9.63309 11.7309 9.37156 11.8757 8.58916C12.3797 8.70576 12.7574 8.59897 13.0274 8.15873C13.0731 8.08463 13.1079 7.92554 13.1341 7.89394C13.1918 7.82529 13.6816 7.62151 13.7872 7.53216C13.6163 8.10861 13.5477 8.71121 13.5902 9.31272C13.6043 9.50341 13.6272 9.87718 13.8819 9.84013C14.1813 9.79654 13.9941 9.31599 13.9821 9.11548C13.9527 8.59788 14.0844 7.61607 14.4175 7.20525C14.5819 7.00257 15.0957 6.90014 14.6853 6.6081H14.5677L12.8304 7.57139C12.2403 7.66401 11.9943 6.9993 12.445 6.63861C12.6442 6.47952 14.0398 5.68513 14.239 5.65789C15.2394 5.51732 15.751 6.94155 15.923 7.71959C16.537 10.4809 13.3496 12.7965 10.8981 11.381C9.58527 10.6225 9.08016 8.9237 8.25718 7.72503C8.22997 7.68581 8.25501 7.65856 8.26698 7.6226C8.36387 7.33166 8.73072 6.95462 8.82543 6.63316H8.82761Z" fill="white"/>
<path d="M10.0283 6.48387C10.2482 6.44792 10.4529 6.55797 10.5846 6.73015C10.7664 6.9677 11.2846 7.86561 11.401 8.14239C11.659 8.75915 11.118 9.18849 10.5846 8.80274L9.63861 7.16929C9.5243 6.88488 9.72787 6.534 10.0283 6.48387Z" fill="white"/>
<path d="M12.6551 8.00182C12.4374 8.29712 12.0629 8.31238 11.818 8.03778C11.6503 7.85035 11.0941 6.84674 10.9678 6.58086C10.8415 6.31497 10.8088 6.02076 11.0941 5.83224C11.5632 5.52277 11.9192 6.0164 12.0683 6.41849C11.5349 7.0418 11.8484 7.89067 12.6551 8.00182Z" fill="white"/>
<path d="M7.18492 5.81044L6.78758 5.17188C6.17471 4.23366 7.44183 3.7531 7.75752 4.77415L7.18492 5.81044Z" fill="white"/>
<path d="M12.384 6.16133C12.2316 5.8148 11.9421 5.46937 12.3231 5.14464C12.7531 4.77851 13.1852 5.22746 13.3028 5.65462L12.384 6.16024V6.16133Z" fill="white"/>
</svg>
