<svg width="16" height="16" viewBox="0 0 16 16" fill="none" xmlns="http://www.w3.org/2000/svg">
<path d="M0.327872 11.9201C0.591053 11.1201 0.818112 10.373 0.767798 9.51493C0.702002 8.39878 0.0866229 7.43102 0.0130869 6.27488C-0.355883 0.477364 7.17187 -2.31881 10.6126 2.35094C13.9759 6.91747 9.76627 13.0208 4.33494 11.5627C3.95693 11.4608 3.39316 11.1279 3.04096 11.1666C2.77262 11.1962 2.47848 11.5627 2.20239 11.7033C1.59991 12.0092 0.984535 12.0337 0.327872 11.9188V11.9201ZM3.36349 6.53165C4.25366 5.63228 2.75198 4.45033 2.07338 5.39744C1.45026 6.26842 2.67586 7.22586 3.36349 6.53165ZM5.73986 5.06969C4.69487 5.24905 4.89355 6.98714 6.14753 6.7265C7.13059 6.52262 6.85322 4.88001 5.73986 5.06969ZM8.85933 5.06969C7.97045 5.25034 7.97432 6.69037 8.9677 6.74585C10.3107 6.82069 10.0952 4.81937 8.85933 5.06969Z" fill="white"/>
<path d="M5.00708 12.795C9.62823 13.4324 13.6843 9.21557 12.7438 4.61937C14.8661 5.57035 16.1433 7.8878 15.9872 10.2027C15.8801 11.7924 15.0441 12.8401 15.3189 14.555C15.3937 15.0195 15.5343 15.3253 15.6866 15.7486C15.7072 15.8041 15.7782 15.8286 15.6775 15.8841C15.1641 16.1679 14.1423 15.8763 13.6598 15.5899C13.3824 15.4247 13.2392 15.1692 12.8986 15.1602C12.5813 15.1511 11.9865 15.4789 11.6202 15.5718C9.0451 16.2196 6.31137 15.1073 5.00579 12.795H5.00708Z" fill="white"/>
</svg>
