<svg width="16" height="16" viewBox="0 0 16 16" fill="none" xmlns="http://www.w3.org/2000/svg">
<path d="M14.7596 11.3088C14.6815 11.3856 14.3513 11.4948 14.3287 11.6149C14.2982 11.7767 14.8054 11.8524 14.7731 12.0132C14.6623 12.1307 14.5696 12.1858 14.5096 12.343C14.3671 12.715 14.5424 13.1082 14.4881 13.5086C14.3728 14.3537 13.3861 13.9837 12.7698 13.9533C10.6584 13.8482 8.52842 14.5804 6.97516 15.8594C7.24035 15.1606 7.71305 14.4485 8.17276 13.8337C9.2437 12.4007 10.6143 11.4562 11.3946 9.81339C13.3595 5.67709 11.8702 0.535966 6.27005 0.242762C5.53611 0.20463 4.88869 0.295322 4.17397 0.347882C4.11177 0.35252 3.96306 0.385499 3.9772 0.297383C7.88042 -0.728575 12.8682 0.933261 13.912 4.76965C14.2032 5.84044 14.2258 6.5093 14.8444 7.52701C15.0225 7.82073 15.8571 8.80289 15.8995 8.992C15.9956 9.42125 14.8172 9.59233 14.6917 9.82988C14.4474 10.2916 15.0988 10.9733 14.7596 11.3088Z" fill="oklch(75.24% 0.1775 58.27deg)"/>
<path d="M4.90023 1.94518L7.73431 2.19478C7.918 1.79759 8.5249 1.74062 8.80742 2.07568C9.07374 2.39209 8.80574 2.7696 8.8331 2.8276C8.88056 2.92807 10.0369 4.09325 10.1295 4.11396C10.249 4.14037 10.4975 4.01091 10.675 4.0166C11.5812 4.04457 11.9519 5.22114 11.115 5.66805C10.9548 5.7535 10.6756 5.74987 10.6013 5.86484C10.5762 5.90367 10.3272 6.69341 10.3328 6.73846C10.3384 6.78869 10.4606 6.85964 10.4952 6.93162C10.7303 7.42307 10.0302 7.9026 9.61309 7.49091C9.53157 7.41012 9.50086 7.26253 9.43498 7.22887C9.1949 7.10666 8.72423 7.24285 8.45009 7.12167C8.22341 7.65558 7.78735 7.79592 7.19887 7.75812L6.58136 8.66644C6.54898 8.79435 6.83931 8.9958 6.69805 9.39092C6.4401 10.1128 5.20061 9.91033 5.29274 9.07348C5.30558 8.95592 5.4245 8.84303 5.35136 8.75551C5.08951 8.64883 4.67634 8.15117 4.44799 8.08333C4.25201 8.02482 4.04767 8.19364 3.73109 8.02792C3.46142 7.88655 3.43239 7.53958 3.38102 7.49816C3.32575 7.45362 2.06225 7.1921 1.95226 7.18692C1.79648 7.17916 1.59604 7.38216 1.3515 7.38785C0.851233 7.39976 0.543594 6.86171 0.823317 6.4785C0.9026 6.37026 1.09299 6.30294 1.1304 6.24546C1.26998 6.0321 1.01036 5.15123 1.10304 4.84725C-0.354757 5.01503 -0.371507 2.98918 1.07624 3.13728C1.31576 3.16162 1.40621 3.31128 1.62117 3.33976L3.08957 2.28644C2.71661 0.977819 4.75339 0.617908 4.90135 1.94569L4.90023 1.94518ZM7.68239 4.78821L7.97495 3.06012L7.63604 2.54175C7.25359 2.55366 5.01804 2.16837 4.85166 2.26625C4.83156 2.27816 4.73776 2.56091 4.62107 2.59457L6.43061 4.38428C6.77957 4.45782 6.97052 4.45109 7.11345 4.79753L7.68239 4.78821ZM3.9494 5.05439V2.90528L3.2085 2.62771L1.78308 3.63598C1.84171 3.85037 1.90424 4.00417 1.82719 4.2253L3.94884 5.05439H3.9494ZM7.63437 5.10617C7.47357 5.12171 7.26643 5.0751 7.11512 5.11653C6.88342 5.18023 6.75891 5.62351 6.26591 5.3128C5.83208 5.03885 6.18216 4.70587 6.10064 4.53809L4.31343 2.79084L4.17776 2.8333L4.23694 5.12326C4.26765 5.20612 4.61828 5.34905 4.71208 5.35164C4.94881 5.35837 5.08783 5.07925 5.45968 5.33559C5.9136 5.64837 5.49039 5.95442 5.51551 6.26359C5.53673 6.52303 6.0074 8.1403 6.12744 8.39353C6.17657 8.49762 6.21454 8.59291 6.35412 8.49244L6.90073 7.60898C6.30164 6.95026 6.57299 6.15069 7.49646 5.9886L7.63437 5.10669V5.10617ZM9.70019 4.79546L9.84256 4.33094L8.64215 3.10984C8.55673 3.0161 8.36857 2.98193 8.31553 3.1233L8.0252 4.79546H9.70019ZM3.9494 5.3651L1.66025 4.48526C2.33248 5.22683 2.98796 6.00103 3.69759 6.71205C3.76459 6.77937 3.83718 6.8788 3.9494 6.86689V5.3651ZM1.43692 4.84725V6.16778C1.80765 6.34851 1.95784 6.50957 2.05052 6.8933L3.47035 7.22991L3.55578 7.04555L1.43748 4.84673L1.43692 4.84725ZM9.67227 5.10617H7.96937L7.85658 6.05385L8.27645 6.34592L9.75546 5.23512L9.67227 5.10669V5.10617ZM4.22856 5.52046V6.4785C4.22856 6.50542 4.28049 6.89226 4.29277 6.91091C4.30282 6.92592 4.46865 6.96269 4.53732 7.02017C4.88739 7.31225 4.6233 7.68821 4.70035 7.84874C4.77238 7.99841 5.44572 8.34692 5.56855 8.54992L5.70646 8.5753L5.793 8.44635L5.15037 6.24391C5.09397 6.17555 4.88293 6.19367 4.75674 6.09114C4.54737 5.92076 4.70705 5.536 4.22801 5.51994L4.22856 5.52046ZM10.2485 5.68566L10.0028 5.57069L8.4406 6.609L8.48303 6.8063L9.49416 6.91091C9.68455 6.77575 9.74764 6.61728 10.029 6.65405L10.2485 5.68617V5.68566Z" fill="oklch(75.24% 0.1775 58.27deg)"/>
<path d="M4.678 12.3098C5.38882 13.0033 4.15641 14.1929 3.35381 13.4713C2.51968 12.7217 3.84791 11.4996 4.678 12.3098Z" fill="oklch(75.24% 0.1775 58.27deg)"/>
</svg>
