<svg width="16" height="16" viewBox="0 0 16 16" fill="none" xmlns="http://www.w3.org/2000/svg">
<g clip-path="url(#clip0_38_344)">
<path d="M0.5 0H15.5C15.8333 0 16 0.166667 16 0.5V15.5C16 15.8119 15.8135 16 15.5 15.9999H0.5C0.166667 16 0 15.8333 0 15.5V0.5C0 0.166667 0.166667 0 0.5 0ZM9.27559 1.17022C8.70651 1.75598 9.67949 2.56107 10.1479 1.93661C10.6163 1.31215 9.75692 0.674782 9.27559 1.17022ZM12.0281 2.00112C12.552 1.51213 11.8332 0.638656 11.2448 1.14184C10.6563 1.64502 11.4551 2.53398 12.0281 2.00112ZM13.4321 1.01411C12.7739 1.12765 12.8759 2.17917 13.574 2.1624C14.3663 2.14176 14.3173 0.861863 13.4321 1.01411ZM15.1667 3.16667H0.833333V15.1667H15.1667V3.16667Z" fill="white"/>
<path d="M2.66667 5C2.66667 4.81591 2.81591 4.66667 3 4.66667H5C5.18409 4.66667 5.33333 4.81591 5.33333 5V8.33333C5.33333 8.51743 5.18409 8.66667 5 8.66667H3C2.81591 8.66667 2.66667 8.51743 2.66667 8.33333V5Z" fill="white"/>
<path d="M6.66667 5C6.66667 4.81591 6.81591 4.66667 7 4.66667H9C9.1841 4.66667 9.33333 4.81591 9.33333 5V8.33333C9.33333 8.51743 9.1841 8.66667 9 8.66667H7C6.81591 8.66667 6.66667 8.51743 6.66667 8.33333V5Z" fill="white"/>
<path d="M2.66667 10.3333C2.66667 10.1492 2.81591 10 3 10H13C13.1841 10 13.3333 10.1492 13.3333 10.3333C13.3333 10.5174 13.1841 10.6667 13 10.6667H3C2.81591 10.6667 2.66667 10.5174 2.66667 10.3333Z" fill="white"/>
<path d="M2.66667 12C2.66667 11.8159 2.81591 11.6667 3 11.6667H13C13.1841 11.6667 13.3333 11.8159 13.3333 12C13.3333 12.1841 13.1841 12.3333 13 12.3333H3C2.81591 12.3333 2.66667 12.1841 2.66667 12Z" fill="white"/>
<path d="M2.66667 13.6667C2.66667 13.4826 2.81591 13.3333 3 13.3333H13C13.1841 13.3333 13.3333 13.4826 13.3333 13.6667C13.3333 13.8508 13.1841 14 13 14H3C2.81591 14 2.66667 13.8508 2.66667 13.6667Z" fill="white"/>
<path d="M10.6667 5C10.6667 4.81591 10.8159 4.66667 11 4.66667H13C13.1841 4.66667 13.3333 4.81591 13.3333 5V8.33333C13.3333 8.51743 13.1841 8.66667 13 8.66667H11C10.8159 8.66667 10.6667 8.51743 10.6667 8.33333V5Z" fill="white"/>
</g>
<defs>
<clipPath id="clip0_38_344">
<rect width="16" height="16" fill="white"/>
</clipPath>
</defs>
</svg>
