<svg width="16" height="16" viewBox="0 0 16 16" fill="none" xmlns="http://www.w3.org/2000/svg">
<path d="M8 7.5C8.55229 7.5 9 7.05228 9 6.5C9 5.94772 8.55229 5.5 8 5.5C7.44772 5.5 7 5.94772 7 6.5C7 7.05228 7.44772 7.5 8 7.5Z" fill="white"/>
<path fill-rule="evenodd" clip-rule="evenodd" d="M8 12.9003C7.24993 13.2837 6.40022 13.5 5.5 13.5C2.46243 13.5 0 11.0376 0 8C0 4.96243 2.46243 2.5 5.5 2.5C6.40022 2.5 7.24993 2.71628 8 3.09971C8.75007 2.71628 9.59978 2.5 10.5 2.5C13.5376 2.5 16 4.96243 16 8C16 11.0376 13.5376 13.5 10.5 13.5C9.59978 13.5 8.75007 13.2837 8 12.9003ZM8 11.7422C6.79401 10.935 6 9.56021 6 8C6 6.43979 6.79401 5.06504 8 4.25777C9.20599 5.06504 10 6.43979 10 8C10 9.56021 9.20599 10.935 8 11.7422ZM14 6.5C14 7.05228 13.5523 7.5 13 7.5C12.4477 7.5 12 7.05228 12 6.5C12 5.94772 12.4477 5.5 13 5.5C13.5523 5.5 14 5.94772 14 6.5ZM3 7.5C3.55228 7.5 4 7.05228 4 6.5C4 5.94772 3.55228 5.5 3 5.5C2.44772 5.5 2 5.94772 2 6.5C2 7.05228 2.44772 7.5 3 7.5ZM2.77639 9.55279C3.02338 9.42929 3.32372 9.5294 3.44721 9.77639C3.79716 10.4763 4.4754 10.5 5 10.5C5.27614 10.5 5.5 10.7239 5.5 11C5.5 11.2761 5.27614 11.5 5 11.5L4.97489 11.5C4.47961 11.5004 3.19173 11.5015 2.55279 10.2236C2.42929 9.97662 2.5294 9.67628 2.77639 9.55279ZM12.5528 11.2236C12.2028 10.5237 11.5246 10.5 11 10.5C10.7239 10.5 10.5 10.2761 10.5 10C10.5 9.72386 10.7239 9.5 11 9.5L11.0251 9.49999C11.5204 9.49958 12.8083 9.49851 13.4472 10.7764C13.5707 11.0234 13.4706 11.3237 13.2236 11.4472C12.9766 11.5707 12.6763 11.4706 12.5528 11.2236Z" fill="white"/>
</svg>
