<svg width="16" height="16" viewBox="0 0 16 16" fill="none" xmlns="http://www.w3.org/2000/svg">
<path d="M2.6988 0C2.27294 0 1.92771 0.345226 1.92771 0.771084C1.92771 1.19694 2.27294 1.54217 2.6988 1.54217H3.56627C4.91567 1.63855 5.59036 2.79518 5.68675 4.43373C5.79659 5.69847 6.0058 6.31686 6.84338 7.13253C7.23927 7.51807 7.13253 8.09639 6.84338 8.09639C5.99445 8.09639 5.7368 8.1865 5.49398 8.38554C5.60635 8.59205 5.66967 8.69741 5.78314 8.86747C5.66569 9.14785 5.58049 9.19641 5.30121 9.3494C5.51912 9.5165 5.6021 9.62014 5.68675 9.83132C5.4609 10.019 5.37032 10.106 5.30121 10.2169C5.57928 10.7033 5.66773 10.9789 5.68675 11.4699C5.58247 12.1134 5.35591 12.3336 4.7229 12.5301L1.92771 12.7229C1.28893 12.7229 0.771088 13.2407 0.771088 13.8795V14.8434C0.771088 15.4822 1.28893 16 1.92771 16H14.0723C14.7111 16 15.2289 15.4822 15.2289 14.8434V13.8795C15.2289 13.2407 14.7111 12.7229 14.0723 12.7229L11.2771 12.5301C10.6441 12.3336 10.4175 12.1134 10.3133 11.4699C10.3323 10.9789 10.4207 10.7033 10.6988 10.2169C10.6297 10.106 10.5391 10.019 10.3133 9.83132C10.3979 9.62014 10.4809 9.5165 10.6988 9.3494C10.4195 9.19641 10.3343 9.14785 10.2169 8.86747C10.3303 8.69741 10.3937 8.59205 10.506 8.38554C10.2632 8.1865 10.0056 8.09639 9.15663 8.09639C8.86747 8.09639 8.76073 7.51807 9.15663 7.13253C9.99421 6.31686 10.2034 5.69847 10.3133 4.43373C10.4096 2.79518 11.0843 1.63855 12.4337 1.54217H13.3012C13.7271 1.54217 14.0723 1.19694 14.0723 0.771084C14.0723 0.345226 13.7271 0 13.3012 0H2.6988Z" fill="oklch(62.43% 0.1521 260.54deg)"/>
</svg>
