<svg width="16" height="16" viewBox="0 0 16 16" fill="none" xmlns="http://www.w3.org/2000/svg">
<path d="M7.8132 6.14336C8.48926 6.48792 8.67092 7.67501 8.26347 8.24841C8.05845 8.53706 7.09952 8.61247 6.42347 8.7776C6.18341 8.83611 5.96541 8.62677 6.00823 8.38233C6.05884 8.08718 6.06403 7.78683 5.91351 7.5619C5.87718 7.50729 5.8655 7.43968 5.8668 7.37337C5.86809 7.29795 5.8668 7.22124 5.8668 7.14583C5.8655 7.07952 5.88107 7.01321 5.9161 6.9573C6.38324 6.19147 6.81275 5.63368 7.8145 6.14206L7.8132 6.14336Z" fill="white"/>
<path d="M10.6121 2.39611C10.1502 2.09186 10.8107 1.43785 9.46376 1.48206C9.37941 1.48466 9.24317 1.64459 8.97456 1.60558C8.82274 1.58348 8.6281 1.42485 8.49964 1.35984C8.43087 1.32474 8.37247 1.27143 8.33874 1.20252C7.9235 0.344375 9.0641 -0.438354 9.68435 0.284565C9.76221 0.37818 9.73236 0.535506 9.76351 0.579713C10.2151 1.21942 10.0152 1.35464 10.9638 1.03089C12.6403 0.946374 11.876 3.22825 10.6108 2.39611H10.6121Z" fill="white"/>
<path d="M5.56315 6.29415C5.54758 6.77393 4.93382 7.04957 4.57438 6.76092C4.37325 6.5893 4.21624 5.55693 4.21235 5.24227C3.91649 4.57266 3.38188 4.68188 3.01206 4.49075C2.47356 4.2125 2.57996 2.73156 3.56874 3.09692C4.36417 3.39207 3.84513 4.40494 4.36287 5.09275C4.59514 5.4009 5.47751 5.81047 5.53201 5.88588C5.62414 6.012 5.53331 6.24994 5.56315 6.29675V6.29415Z" fill="white"/>
<path d="M13.2904 3.74836C12.4197 5.41393 10.8924 3.10865 12.7415 2.85251C12.8635 2.83561 12.988 2.88502 13.0607 2.98383C13.1619 3.12296 13.2294 3.29848 13.2956 3.44541C13.3397 3.54162 13.3397 3.65474 13.2904 3.74836Z" fill="white"/>
<path d="M4.06183 7.99744V8.49542C4.06183 8.61504 3.99955 8.72556 3.89833 8.78797C3.84643 8.82048 3.79712 8.84778 3.76209 8.84908C3.63622 8.85298 3.4844 8.79708 3.35334 8.74507C3.29625 8.72296 3.24694 8.68526 3.20931 8.63715L3.18465 8.60594C3.13405 8.54223 3.10809 8.46162 3.11199 8.37971L3.1561 7.20821C3.16 7.1016 3.11458 6.99758 3.03283 6.92997C2.71362 6.67122 2.30098 6.42939 2.25946 6.00031C2.24908 5.895 2.29709 5.79098 2.37754 5.72077C2.39052 5.71037 2.4022 5.69996 2.41128 5.69216C2.51639 5.59855 2.46967 5.43212 2.79278 5.38271C3.05359 5.3151 3.13664 5.42822 3.31182 5.54264C3.88147 5.9145 3.54279 6.35657 3.36761 6.85716C3.33128 6.96117 3.35594 7.07429 3.41952 7.16401C3.53501 7.32913 3.49608 7.46045 3.90093 7.7075C4.00214 7.76861 4.06313 7.88042 4.06313 7.99874L4.06183 7.99744Z" fill="white"/>
<path d="M10.0658 13.9576C10.0658 13.9576 10.0658 13.9628 10.0658 13.9654C10.0658 14.1293 9.93349 14.2632 9.76999 14.2632H6.30928C6.14578 14.2632 6.01343 14.1306 6.01343 13.9667C6.01343 13.9641 6.01343 13.9615 6.01343 13.9589C6.01343 13.7951 6.14578 13.6625 6.30928 13.6625H9.76999C9.93349 13.6625 10.0658 13.7938 10.0658 13.9576Z" fill="white"/>
<path d="M10.4032 13.1229C10.4032 13.1229 10.4032 13.1294 10.4032 13.132C10.4032 13.3257 10.2475 13.4831 10.0555 13.4831H5.98487C5.79283 13.4831 5.63712 13.327 5.63712 13.1346C5.63712 13.132 5.63712 13.1281 5.63712 13.1255C5.63712 12.9331 5.79283 12.777 5.98487 12.777H10.0555C10.2475 12.777 10.4032 12.9318 10.4032 13.1242V13.1229Z" fill="white"/>
<path d="M8.99921 10.2429C9.03036 10.4743 8.82144 10.6693 8.59306 10.6225C7.84305 10.4678 6.88801 9.84109 7.54979 9.18709C8.33744 8.41086 8.89022 9.43543 8.99921 10.2416V10.2429Z" fill="white"/>
<path d="M9.57536 15.2045C9.65711 15.2006 9.70512 15.2942 9.65452 15.3592C9.58055 15.4542 9.48713 15.5647 9.37683 15.6505C8.58269 16.2603 6.93603 16.0133 6.40012 15.3632C6.34692 15.2981 6.39623 15.2006 6.47928 15.2058C7.37203 15.2604 8.69688 15.25 9.57536 15.2058V15.2045Z" fill="white"/>
<path d="M9.65709 14.4335H6.42086C6.26535 14.4335 6.13928 14.5598 6.13928 14.7156C6.13928 14.8714 6.26535 14.9978 6.42086 14.9978H9.65709C9.8126 14.9978 9.93867 14.8714 9.93867 14.7156C9.93867 14.5598 9.8126 14.4335 9.65709 14.4335Z" fill="white"/>
<path d="M13.0763 8.16907C12.9906 9.05452 12.0356 8.342 11.6203 8.14176C11.5594 8.11186 11.4919 8.08325 11.427 8.10276C11.3284 8.13266 10.9274 8.80357 10.9651 8.84648C11.126 9.02721 11.2285 9.24305 11.2972 9.47188C11.3141 9.52779 11.4465 10.2039 11.414 10.2039C11.1662 10.2039 10.7548 10.2559 10.6731 9.96076L10.6653 8.88029C10.6653 8.75937 10.6004 8.64755 10.4966 8.58644C10.1709 8.39271 9.92957 8.3654 10.0502 7.69189C10.0697 7.58007 10.1463 7.48256 10.2514 7.43835C10.6939 7.25242 11.0325 7.37074 11.2946 7.7465C11.3842 7.87522 11.5516 7.92203 11.6982 7.86872C12.2912 7.65548 13.1723 7.1705 13.075 8.16907H13.0763Z" fill="white"/>
<path d="M5.50607 9.95296C5.45676 10.2819 5.33479 10.5979 4.96238 10.33C4.86895 10.2624 4.81445 10.1519 4.81834 10.0362L4.82353 9.88665C4.82872 9.73193 4.93642 9.60061 5.08695 9.5642C5.32441 9.50699 5.5424 9.70982 5.50607 9.95166V9.95296Z" fill="white"/>
<path d="M5.56443 5.17202C5.52291 5.14602 5.00646 4.44 4.9883 4.37889C4.73656 3.52335 5.96539 2.35576 6.86593 3.184C8.08308 4.29958 6.0679 5.49708 5.56443 5.17202Z" fill="white"/>
<path d="M12.7662 6.29415C12.3652 6.09522 12.2199 5.68305 11.6411 5.68305C10.7912 5.68435 10.2397 6.80513 8.86425 6.44367C8.77991 6.42157 8.30239 5.999 8.26346 5.84167C8.21415 5.84037 8.12592 5.82997 8.11294 5.84167C8.04806 5.81177 7.98448 5.75846 7.96242 5.69085C7.95982 5.68175 7.95853 5.67135 7.95723 5.66224C7.95593 5.58553 7.93387 5.51272 7.88846 5.45031C7.28377 4.62467 8.0286 3.5845 7.66138 2.53393C7.63153 2.44942 7.56146 2.30119 7.51085 2.23358C7.00998 1.55877 5.68253 1.71479 6.03807 0.5342C6.1834 0.054421 6.95678 -0.0131901 7.30064 0.263756C7.51345 0.435384 7.63413 1.43655 7.66138 1.78241H7.8119C8.03898 2.9825 9.43001 2.87329 10.254 3.17494C10.4344 3.23995 10.4642 3.40377 10.5135 3.43628C11.2363 3.90696 11.0494 4.1553 11.4621 4.81971C11.7346 5.25658 12.0408 5.30729 12.2108 5.35019C12.2834 5.3684 12.3613 5.3671 12.4301 5.33589C14.0664 4.60387 14.165 6.98586 12.7649 6.29415H12.7662Z" fill="white"/>
<path d="M4.02029 1.67707C4.26424 1.07507 4.63017 1.2337 4.95976 1.20899C5.07006 1.20119 5.17905 1.2506 5.24653 1.33902C6.42865 2.87717 3.43378 3.13721 4.02159 1.67707H4.02029Z" fill="white"/>
</svg>
