<svg width="16" height="16" viewBox="0 0 16 16" fill="none" xmlns="http://www.w3.org/2000/svg">
<g clip-path="url(#clip0_38_376)">
<path d="M10.2921 12.8028H13.1129L11.7032 10.1478C14.3848 8.45626 17.3198 12.0694 15.364 14.694C13.6497 16.9948 10.3617 15.6785 10.2921 12.8028Z" fill="white"/>
<path d="M2.83657 12.8028H5.65734C5.71247 15.9534 1.70905 17.0516 0.338701 14.2341C-0.980459 11.5222 1.81406 8.62542 4.23974 10.1478L2.83657 12.8028Z" fill="white"/>
<path d="M9.35361 5.82242L7.97539 3.20709L6.59716 5.82242C4.57445 4.80483 4.70177 1.54326 6.66279 0.475453C9.17248 -0.889703 11.8121 2.06659 10.4142 4.75329C10.1871 5.1894 9.80515 5.68234 9.35361 5.82242Z" fill="white"/>
</g>
<defs>
<clipPath id="clip0_38_376">
<rect width="16" height="16" fill="white"/>
</clipPath>
</defs>
</svg>
