<svg width="16" height="16" viewBox="0 0 16 16" fill="none" xmlns="http://www.w3.org/2000/svg">
<path d="M4.16639 2.35767C4.49932 2.31796 4.66465 2.81825 4.45515 3.12908L2.4927 5.5443L2.30246 5.5806C2.00916 5.4422 1.05002 4.17617 1.40559 3.78479C1.71587 3.44332 2.23791 4.49948 2.40777 4.39284C2.79732 4.14894 3.77684 2.40304 4.16526 2.35767H4.16639Z" fill="white"/>
<path d="M14.5449 5.45468C14.0704 5.93 13.3887 4.92489 13.058 4.64469C12.7274 4.92489 12.0457 5.93 11.5712 5.45468C11.0978 4.98048 12.151 4.43141 12.3718 4.05251C12.4284 3.72353 11.0707 3.15177 11.5893 2.54144C12.1159 1.92204 12.5247 3.13022 13.058 3.2845C13.5257 3.2845 14.0964 1.6373 14.6604 2.72749C14.7827 3.20509 13.6978 3.79046 13.7431 4.05251C13.9639 4.43141 15.0171 4.97935 14.5437 5.45468H14.5449Z" fill="white"/>
<path d="M9.32335 8.82962L11.7399 13.0293C12.1385 14.1138 11.5089 14.8784 10.398 14.9431C8.69147 15.0429 6.84452 14.9023 5.13346 14.8943C4.3555 14.7139 3.93878 13.9266 4.18338 13.1688L6.64862 8.82962H0.417006C0.353592 8.82962 0.184863 8.71504 0.135038 8.65946C-0.108429 8.38833 -0.00311542 8.01623 0.294707 7.83926L15.5923 7.80976C15.9807 7.87556 16.1234 8.36564 15.8743 8.65946C15.8267 8.71504 15.6501 8.82849 15.5912 8.82849H9.32109L9.32335 8.82962Z" fill="white"/>
<path d="M14.5551 1.47508C15.102 1.47508 15.547 1.92091 15.547 2.46884V5.46942C15.547 6.01735 15.102 6.46319 14.5551 6.46319H11.5678C11.0208 6.46319 10.5758 6.01735 10.5758 5.46942V2.46884C10.5758 1.92091 11.0208 1.47508 11.5678 1.47508H14.5551ZM14.5551 1.0213H11.5678C10.7728 1.0213 10.1228 1.67247 10.1228 2.46884V5.46942C10.1228 6.2658 10.7728 6.91696 11.5678 6.91696H14.5551C15.35 6.91696 16 6.2658 16 5.46942V2.46884C16 1.67247 15.35 1.0213 14.5551 1.0213Z" fill="white"/>
<path d="M4.43251 1.47508C4.97946 1.47508 5.42449 1.92091 5.42449 2.46884V5.46942C5.42449 6.01735 4.97946 6.46319 4.43251 6.46319H1.44523C0.898277 6.46319 0.453243 6.01735 0.453243 5.46942V2.46884C0.453243 1.92091 0.898277 1.47508 1.44523 1.47508H4.43251ZM4.43251 1.0213H1.44523C0.650281 1.0213 0.000281794 1.67247 0.000281794 2.46884V5.46942C0.000281794 6.2658 0.650281 6.91696 1.44523 6.91696H4.43251C5.22745 6.91696 5.87745 6.2658 5.87745 5.46942V2.46884C5.87745 1.67247 5.22745 1.0213 4.43251 1.0213Z" fill="white"/>
</svg>
