<svg width="16" height="16" viewBox="0 0 16 16" fill="none" xmlns="http://www.w3.org/2000/svg">
<path d="M4.05026 3.55608C3.9436 4.74422 3.71394 5.98985 3.1534 7.0532C2.87041 7.58922 2.53843 8.16538 1.84075 8.09377C1.62415 8.07207 0.631506 7.54365 0.425793 7.39608C-0.291482 6.88177 0.0176322 6.22965 0.474773 5.69146C1.36511 4.64331 2.64075 3.6928 4.05026 3.55608Z" fill="white"/>
<path d="M11.9229 6.67886H11.186C11.1044 6.67886 10.8508 6.42604 10.8508 6.34467V5.61009C11.5093 5.52654 12.0056 6.02349 11.9218 6.67778L11.9229 6.67886Z" fill="white"/>
<path d="M10.4012 12.957C9.98982 12.957 9.69921 12.5544 9.82874 12.166L10.4012 10.4548L10.9738 12.166C11.1044 12.5555 10.8138 12.957 10.4012 12.957Z" fill="white"/>
<path d="M9.19418 14.4218C8.78275 14.4218 8.49214 14.0192 8.62167 13.6308L9.19418 11.9197L9.7667 13.6308C9.89731 14.0203 9.6067 14.4218 9.19418 14.4218Z" fill="white"/>
<path d="M11.1327 7.48071C10.7049 7.48071 10.0486 6.85355 10.0486 6.42604V5.61226H8.25487L7.95337 3.93694C7.03474 3.38465 5.9561 3.11555 4.88073 3.12966C4.78604 4.7963 4.45407 6.8286 3.39176 8.17189C2.8149 8.90105 1.94959 9.10938 1.10606 8.68187L0.0481082 10.5514C0.00674789 10.6729 0.0720537 10.8704 0.106883 10.9974C0.359399 11.9251 1.10824 12.7183 1.93436 13.1794C3.25898 13.9194 4.86767 14.055 6.36426 14.0214L7.13052 11.0842C7.1697 11.0516 7.41786 11.1775 7.48317 11.1981C8.29187 11.4466 9.05377 11.3218 9.59255 10.6436C9.18003 10.3615 8.68371 10.0631 8.41922 9.62477C8.37133 9.54557 8.16779 9.12131 8.29405 9.08225H10.4633C10.5144 9.08225 10.767 8.99545 10.8323 8.9694C11.4548 8.72093 11.8597 8.14259 11.9229 7.48071H11.1327ZM6.8693 5.86073C6.8693 5.99202 6.76263 6.09836 6.63093 6.09836H6.10304C5.97134 6.09836 5.86468 5.99202 5.86468 5.86073V5.33448C5.86468 5.20319 5.97134 5.09686 6.10304 5.09686H6.63093C6.76263 5.09686 6.8693 5.20319 6.8693 5.33448V5.86073Z" fill="white"/>
<path d="M14.1433 5.61009C14.091 5.60466 14.0116 5.5797 13.9626 5.558C13.7786 5.47771 13.6567 5.31604 13.6089 5.12398H14.8061C14.7724 5.29108 14.6657 5.43973 14.5188 5.52545C14.4513 5.56451 14.3501 5.60249 14.2728 5.61009C14.2391 5.61334 14.177 5.61334 14.1433 5.61009Z" fill="white"/>
<path d="M14.0442 1.91983C14.0508 1.80915 14.0116 1.66159 14.1302 1.59974C14.201 1.56285 14.2815 1.57261 14.3337 1.63554C14.4023 1.71801 14.3544 1.82434 14.3795 1.91657C14.9063 1.99036 15.3177 2.44282 15.3482 2.97124C15.3732 3.39658 15.2752 3.70908 15.5321 4.09427C15.6007 4.19735 15.6725 4.24726 15.752 4.33081C15.9054 4.49465 15.838 4.74964 15.6224 4.80932C14.706 4.83536 13.7841 4.81257 12.8655 4.82125C12.7435 4.81149 12.6369 4.74422 12.5966 4.62486C12.5193 4.3894 12.7348 4.29717 12.8524 4.13984C13.1702 3.71342 13.02 3.37597 13.0755 2.90397C13.1343 2.40593 13.5392 1.97842 14.0431 1.91983H14.0442Z" fill="white"/>
<path d="M13.1049 1.70173C13.2257 1.68546 13.3226 1.79505 13.2856 1.91223C13.2693 1.9654 13.1561 2.06848 13.1147 2.12165C12.9003 2.39074 12.7795 2.713 12.749 3.05588C12.7435 3.11989 12.7588 3.18174 12.7327 3.24468C12.6815 3.36946 12.4932 3.3738 12.4366 3.25227C12.392 3.1557 12.4442 2.8508 12.4682 2.73904C12.5367 2.42329 12.688 2.12056 12.8959 1.87426C12.9449 1.81675 13.0287 1.7115 13.1038 1.70173H13.1049Z" fill="white"/>
<path d="M15.2622 1.70173C15.3634 1.68763 15.4265 1.76792 15.4886 1.83628C15.7335 2.10429 15.9131 2.48622 15.9718 2.84429C15.986 2.93435 16.0132 3.14485 15.9925 3.22731C15.9664 3.33148 15.8282 3.3738 15.7411 3.31086C15.6486 3.24359 15.679 3.12532 15.6682 3.02658C15.6312 2.67611 15.4984 2.35927 15.2752 2.08801C15.2382 2.04244 15.1533 1.97191 15.1359 1.92308C15.1011 1.82651 15.1577 1.71692 15.2622 1.70282V1.70173Z" fill="white"/>
</svg>
