<svg width="16" height="16" viewBox="0 0 16 16" fill="none" xmlns="http://www.w3.org/2000/svg">
<path d="M7.79071 7.7921H5.52355C6.22577 6.9745 5.8401 5.66079 4.78454 5.39715C3.58854 5.09904 2.5954 6.24923 3.04237 7.38719L3.27756 7.7921H0.956885L0.922332 7.66862C-0.361728 7.26038 -0.173355 5.44499 0.6838 4.69191C0.97249 4.43829 1.24558 4.40825 1.42503 4.02782C1.61786 3.62292 1.57439 3.33036 2.1005 3.19243C2.39699 3.11456 2.54858 3.20022 2.78266 2.95104C3.07804 2.63847 3.21737 2.36148 3.65988 2.1924C4.15366 2.00441 4.74999 2.22466 5.16352 1.91097C5.28724 1.81753 5.37418 1.68071 5.51574 1.59172C6.03739 1.26246 6.75745 1.3292 7.27575 1.62954C7.43626 1.49939 7.59454 1.37258 7.7896 1.29472V4.09234C7.7896 4.12905 7.86093 4.21693 7.8966 4.23695C8.11396 4.36153 8.19087 4.11014 8.29453 3.98778C8.88529 3.28921 10.0947 3.6307 10.1638 4.55175C10.2429 5.62297 8.97334 6.14467 8.29453 5.34821C8.21205 5.25032 8.16523 5.09348 8.02144 5.07457C7.93562 5.06344 7.7896 5.15799 7.7896 5.24365V7.78987L7.79071 7.7921Z" fill="white"/>
<path d="M8.66236 1.17124C8.88529 1.19349 9.19961 1.32475 9.37572 1.46491C9.42811 1.50718 9.53512 1.64845 9.58639 1.65401C10.39 1.26135 11.1368 1.5895 11.5403 2.34146C12.0486 2.22466 12.5 2.11676 12.9069 2.51944C13.083 2.69408 13.2257 3.05227 13.4397 3.13014C13.7284 3.23581 13.9101 3.22246 14.1196 3.49833C14.2779 3.70523 14.2478 3.84094 14.3091 4.06342C14.3749 4.30035 14.6658 4.39379 14.8452 4.55509C15.3301 4.98891 15.2086 5.44054 14.9734 5.97781C15.5698 6.40497 15.8908 7.0735 15.9788 7.79321H12.7141C12.675 7.79321 12.5892 7.86329 12.5725 7.90334C12.4722 8.15139 12.7687 8.23594 12.9035 8.40057C13.2892 8.86999 13.2023 9.59081 12.7018 9.93898C11.6184 10.6932 10.3566 9.20926 11.4222 8.24372C11.5314 8.14472 11.6852 8.11246 11.5961 7.90334C11.5816 7.86996 11.4802 7.79321 11.4545 7.79321H8.21093V5.84433C9.32111 6.65191 10.8337 5.71641 10.5517 4.35597C10.3332 3.29922 9.06809 2.86205 8.21093 3.49722V1.17124C8.35583 1.18237 8.51968 1.15678 8.66236 1.17124Z" fill="white"/>
<path d="M10.8771 8.21146C10.3031 9.03351 10.6832 10.2004 11.654 10.4852C12.8846 10.8467 13.9591 9.59971 13.4152 8.43394C13.3806 8.35941 13.3126 8.29267 13.2914 8.21146H16C15.9811 9.09024 15.6244 9.95678 14.8776 10.4518C14.8965 10.899 14.93 11.3884 14.6736 11.78C14.2857 12.3695 13.4397 12.2761 12.83 12.2127C12.7999 12.8256 12.5513 13.4407 12.052 13.8134C11.2773 14.3918 10.4993 14.2806 9.91298 13.5219C9.86282 13.4574 9.77142 13.275 9.73464 13.2394C9.69451 13.2016 9.65773 13.2238 9.61872 13.2505L9.27318 14.7912C9.23751 14.8401 8.80949 14.8379 8.73147 14.8268C8.48513 14.7912 8.43386 14.6076 8.35806 14.4029C8.33688 14.3462 8.21204 13.968 8.21204 13.9413V8.21035H10.8783L10.8771 8.21146Z" fill="white"/>
<path d="M7.79071 8.21146V12.5909L7.46524 12.0881C6.76413 11.1025 4.11799 11.7054 4.4156 9.94565C4.45127 9.73097 4.55716 9.53185 4.59728 9.32384C3.90955 9.12027 3.17389 9.20481 2.46833 9.13362C1.86197 9.07133 1.20433 8.86776 1.03045 8.21146H3.97978C4.05334 8.21146 4.15366 8.08688 4.157 8.01012C4.1648 7.83214 3.99538 7.81768 3.89172 7.75428C2.81944 7.08796 3.46481 5.53843 4.64521 5.78649C5.56033 5.97893 5.76319 7.22701 4.96177 7.72535C4.83024 7.80656 4.63853 7.82658 4.66193 8.03126C4.67085 8.11024 4.76114 8.21146 4.84027 8.21146H7.79071Z" fill="white"/>
</svg>
