<svg width="16" height="16" viewBox="0 0 16 16" fill="none" xmlns="http://www.w3.org/2000/svg">
<path d="M4.29055 2.51946C5.30068 2.42955 5.62179 2.81194 6.32388 3.35574C6.97698 3.86163 7.76506 3.90171 8.56947 3.83021C9.92901 3.70997 10.1652 2.21506 11.9645 2.55304C15.4477 3.20625 17.3211 10.2843 14.9198 12.7585C13.6604 14.0552 11.9482 13.441 10.851 12.3003C10.2904 11.7175 10.0836 11.0567 9.22583 10.8C8.68485 10.6385 7.19577 10.6461 6.66349 10.8422C6.00712 11.0838 5.83079 11.5257 5.42042 12.011C2.97019 14.9099 0.181442 13.2395 0.00728154 9.81201C-0.117897 7.36166 1.37336 2.78052 4.29055 2.51946ZM10.5876 5.83859C9.56871 5.98266 9.59266 7.53174 10.6126 7.6249C12.0222 7.75272 11.9079 5.65118 10.5876 5.83859ZM4.90991 7.08326C4.90991 6.66945 5.0155 6.11482 4.46907 6.013C3.86059 5.89925 3.75283 6.64129 3.8214 7.08326C3.37729 7.0161 2.63167 7.12226 2.74596 7.72781C2.84828 8.27161 3.40451 8.16761 3.8214 8.16653C3.76698 8.67133 3.83664 9.39929 4.53873 9.23572C5.04815 9.11656 4.85548 8.53484 4.94257 8.18061C5.30068 8.13403 5.84276 8.28244 5.97665 7.82097C6.1802 7.11901 5.4226 7.01718 4.90991 7.08218V7.08326ZM13.2054 9.1718C14.0305 8.30627 12.721 7.05943 11.8883 7.91196C11.0545 8.76558 12.389 10.0276 13.2054 9.1718Z" fill="white"/>
</svg>
